<svg xmlns="http://www.w3.org/2000/svg" xmlns:xlink="http://www.w3.org/1999/xlink" id="Layer_1" x="0px" y="0px" viewBox="0 0 557 164" style="enable-background:new 0 0 557 164;" xml:space="preserve"><style type="text/css">	.st0{fill:#6A3E1C;}	.st1{fill:#6D4220;}</style><path class="st0" d="M74.6,58.1c-3.5,2.8-7.1,5.6-10.6,8.4c-1.8,1.4-3.5,2.8-5.2,4.2c-0.6,0.5-1.2,0.7-2.1,0.7c-9.9,0-19.8,0-29.6,0 c-1,0-1.4,0.2-1.4,1.3c0,13.9,0,27.8,0.1,41.7c0,1-0.2,1.3-1.3,1.3c-4.7-0.1-9.4-0.1-14.2,0c-0.9,0-1.1-0.2-1.1-1.1 c0-35.8,0-71.6,0-107.4c0-1,0.3-1.2,1.2-1.2c26.3,0,52.6,0,78.9,0c1,0,1.2,0.3,1.2,1.3c-0.1,3.7-0.1,7.4,0,11.1 c0,1.1-0.2,1.4-1.3,1.4c-20.7,0-41.4,0-62-0.1c-1.2,0-1.5,0.3-1.5,1.5c0.1,11.7,0,23.5,0,35.2c0,1.1,0.2,1.4,1.3,1.4 c15.4,0,30.8,0,46.2,0c0.4,0,0.9,0,1.3,0C74.6,58,74.6,58,74.6,58.1z"></path><path class="st0" d="M104.3,39.9c-1.7,3.3-3.3,6.6-4.1,10.3c-5.4,21.8,6.4,42.7,28.1,49c13.7,4,27.1,3,39.8-3.8 c1.1-0.6,1.5-1.2,1.5-2.5c-0.1-10.6,0-21.2-0.1-31.8c0-1.1,0.3-1.3,1.4-1.3c4.4,0.1,8.7,0,13.1,0c0.8,0,1,0.2,1,1 c0,13.3,0,26.5,0,39.8c0,0.7-0.3,1.1-0.8,1.5c-7.5,5.7-15.9,9.2-25,11.2c-13.9,2.9-27.6,2.5-41-2.5c-13.2-5-23.4-13.5-29.8-26.2 C84,76,82.4,66.8,82.9,57.3c0-0.4,0.1-0.7,0.5-1c6.9-5.5,13.8-10.9,20.7-16.4C104.1,39.8,104.1,39.8,104.3,39.9 C104.2,39.8,104.3,39.9,104.3,39.9z"></path><path class="st0" d="M432.1,35c0-0.7,0-1.2,0-1.6c0-8.9,0-17.8,0-26.7c0-0.9,0.2-1.2,1.2-1.2c3.1,0.1,6.2,0.1,9.2,0c0.8,0,1,0.3,1,1 c0,15.7,0,31.3,0,47c0,0.8-0.2,1-1,1c-2.4-0.1-4.9-0.1-7.3,0c-0.9,0-1.4-0.3-1.9-0.9c-7.4-9-14.8-18-22.2-27 c-0.4-0.5-0.8-0.9-1.3-1.6c0,0.7,0,1.1,0,1.5c0,9,0,17.9,0,26.9c0,0.9-0.1,1.2-1.1,1.2c-3.1-0.1-6.2-0.1-9.2,0 c-0.7,0-0.9-0.2-0.9-0.9c0-15.7,0-31.5,0-47.2c0-0.7,0.2-0.9,0.9-0.9c2.6,0,5.3,0,7.9,0c0.7,0,1,0.3,1.3,0.8 c7.6,9.3,15.2,18.5,22.8,27.8C431.5,34.3,431.7,34.5,432.1,35z"></path><path class="st0" d="M336.9,54.5c-4,0-7.8,0-11.5,0c-0.7,0-1-0.3-1.3-0.8c-2.7-3.9-5.5-7.9-8.2-11.8c-0.5-0.7-1-1-1.8-1 c-2.8,0.1-5.5,0-8.3,0c-0.7,0-0.9,0.2-0.9,0.9c0,3.8,0,7.7,0,11.5c0,1-0.3,1.2-1.2,1.2c-3.1-0.1-6.2,0-9.4,0c-0.7,0-1-0.2-1-0.9 c0-15.7,0-31.5,0-47.2c0-0.7,0.2-0.9,0.9-0.9c7.5,0,15-0.1,22.5,0.1c5.5,0.1,10.6,1.7,14.7,5.8c3.5,3.6,4.7,8,4.5,12.9 c-0.3,6.5-3.5,11.3-9.4,14.2c-0.8,0.4-0.3,0.7-0.1,1c3.2,4.6,6.4,9.2,9.6,13.8C336.3,53.7,336.5,54,336.9,54.5z M304.8,23.2 c0,1.6,0,3.2,0,4.8c0,1.2-0.5,2.9,0.2,3.6c0.7,0.6,2.3,0.2,3.5,0.2c3-0.1,6,0.3,9-0.3c4-0.8,6.6-3.5,6.8-7.1 c0.3-4.7-1.5-7.6-5.6-8.9c-1.1-0.4-2.3-0.6-3.5-0.6c-3.2,0-6.3,0-9.5,0c-0.8,0-0.9,0.2-0.9,0.9C304.8,18.2,304.8,20.7,304.8,23.2z"></path><path class="st0" d="M393.4,54.5c-3.9,0-7.7,0-11.5,0c-0.6,0-0.7-0.4-0.8-0.8c-1.2-2.9-2.4-5.8-3.6-8.7c-0.3-0.7-0.7-0.9-1.4-0.9 c-6.9,0-13.8,0-20.6,0c-0.8,0-1.2,0.3-1.4,1c-1.1,2.9-2.4,5.7-3.6,8.6c-0.2,0.4-0.3,0.9-0.9,0.9c-3.6,0-7.3,0-11,0 c-0.1-0.6,0.2-0.9,0.4-1.4c6.9-15.5,13.8-31,20.7-46.5c0.4-0.8,0.7-1.2,1.7-1.2c3.1,0.1,6.2,0.1,9.2,0c0.6,0,1,0.2,1.2,0.8 c7.1,15.8,14.1,31.6,21.2,47.4C393.2,53.9,393.2,54.2,393.4,54.5z M365.8,16.8c-2.6,6.2-5,12.1-7.5,18c-0.1,0.1-0.1,0.3-0.2,0.5 c4.9,0,9.7,0,14.6,0c0.6,0,0.6-0.3,0.4-0.7c-0.5-1.3-1.1-2.6-1.6-3.9C369.7,26.2,367.8,21.6,365.8,16.8z"></path><path class="st0" d="M506.3,54.3c0-0.4,0-0.8,0-1.2c0-15.4,0-30.8,0-46.3c0-1.1,0.3-1.4,1.4-1.4c3,0.1,6,0.1,9,0 c0.9,0,1.1,0.3,1.1,1.1c0,6.7,0,13.4,0,20.1c0,0.4,0,0.8,0,1.4c2.4-2.6,4.7-4.9,7-7.3c4.7-4.9,9.3-9.9,14-14.8 c0.2-0.2,0.4-0.6,0.8-0.6c4.1,0,8.1,0,12.4,0c-2.4,2.6-4.7,5-6.9,7.4c-4.9,5.3-9.8,10.5-14.7,15.8c-0.7,0.7-0.7,1.1-0.1,1.9 c6,7.5,11.9,14.9,17.8,22.4c0.3,0.4,0.6,0.8,0.9,1.2c-0.4,0.3-0.8,0.2-1.2,0.2c-3.6,0-7.1,0-10.7,0c-1,0-1.6-0.3-2.2-1.1 c-4-5-8.1-10-12.2-15c-0.6-0.8-0.9-0.7-1.5,0c-4.7,5.1-9.5,10.2-14.2,15.3C506.9,53.9,506.8,54.3,506.3,54.3z"></path><path class="st0" d="M451.9,31.6c0-14.5,8.9-24.7,21.8-26.6c7.2-1,14-0.1,20.2,3.9c1.7,1.1,3.1,2.4,4.4,3.8c0.4,0.4,0.4,0.7-0.1,1.1 c-2,1.8-4.1,3.7-6.1,5.6c-0.6,0.6-0.9,0.5-1.5-0.1c-5.7-6-15.2-6.8-21.6-1.8c-4.4,3.5-5.9,8.2-5.7,13.6c0.3,7,5,12.5,11.8,14 c5.9,1.2,11.1-0.1,15.3-4.6c0.7-0.7,1-0.7,1.7,0c1.8,1.8,3.7,3.5,5.6,5.2c0.8,0.7,0.7,1,0,1.7c-3.6,3.9-8.1,6.3-13.3,7.2 c-7.3,1.4-14.4,0.6-20.8-3.3C455.8,46.7,452.1,39.3,451.9,31.6z"></path><path class="st0" d="M432.7,90.6c2.1,0.7,3.8,1.7,5.4,3.1c4.8,4.4,5.4,15.8-3.3,19.7c-3.3,1.5-6.8,2.1-10.3,2.1 c-7.8,0-15.6,0-23.4,0c-0.9,0-1-0.2-1-1.1c0-15.3,0-30.7,0-46c0-0.9,0.1-1.2,1.1-1.2c7.3,0.1,14.5,0,21.8,0.1c3.5,0,6.9,0.7,10,2.3 c8.2,4.3,7.4,15.8,1.1,19.9C433.7,90,433.3,90.3,432.7,90.6z M416.7,109.9c2.4,0,4.7,0,7.1,0c2.4,0,4.8-0.3,7-1.4 c2.6-1.3,3.7-3.5,3.7-6.3c0-2.9-1-5.1-3.6-6.5c-2.2-1.2-4.5-1.5-6.9-1.5c-5.3-0.1-10.5,0-15.8,0c-0.9,0-1,0.3-1,1.1 c0,4.6,0,9.2,0,13.8c0,0.9,0.3,1,1.1,1C411,109.9,413.9,109.9,416.7,109.9z M416,73.1c-3,0-5.5,0-7.9,0c-0.8,0-1,0.2-1,1 c0,4.4,0,8.9,0,13.3c0,0.9,0.2,1.1,1.1,1.1c4.4,0,8.7,0,13.1,0c1.4,0,2.8-0.1,4.2-0.4c2.8-0.6,5.2-1.8,6.3-4.8 c1.5-4.5-0.9-8.5-5.9-9.6C422.3,72.8,418.9,73.3,416,73.1z"></path><path class="st0" d="M248.6,29.9c0-7.7,0-15.4,0-23.1c0-1,0.1-1.3,1.3-1.3c11.6,0.1,23.1,0,34.7,0c1.1,0,1.3,0.3,1.3,1.3 c-0.1,2.2-0.1,4.3,0,6.5c0,1-0.2,1.4-1.3,1.4c-7.7-0.1-15.4,0-23.1-0.1c-1.1,0-1.4,0.3-1.3,1.4c0.1,3.5,0.1,7,0,10.4 c0,0.9,0.2,1.1,1.1,1.1c6.8,0,13.6,0,20.4,0c1,0,1.3,0.3,1.2,1.3c-0.1,2.2-0.1,4.5,0,6.7c0,1-0.2,1.3-1.2,1.3 c-6.8-0.1-13.5,0-20.3-0.1c-1.1,0-1.3,0.3-1.3,1.3c0.1,5.2,0,10.3,0,15.5c0,0.8-0.2,1.1-1.1,1.1c-3.1-0.1-6.2-0.1-9.4,0 c-0.9,0-1-0.3-1-1.1C248.6,45.6,248.6,37.8,248.6,29.9z"></path><path class="st0" d="M364,116.2c-9-0.2-16.6-3.4-21.7-11.2c-8.7-13.4-2.9-34.1,16.7-37.6c6.7-1.2,13.2-0.3,19,3.2 c8.3,5.1,12,12.7,11.6,22.3c-0.6,12.2-9.1,21.3-21.2,23C366.9,116.1,365.5,116.1,364,116.2z M364,109.9c10.8,0,18.7-7.8,18.6-18.4 c-0.1-10.6-7.9-18.4-18.6-18.4c-10.6,0-18.7,7.8-18.7,18.1C345.4,102.1,353.2,109.9,364,109.9z"></path><path class="st0" d="M289.4,100.8c0,2.7,0,5.4,0,8.1c0,0.9-0.3,1.4-1,1.9c-4.8,3.5-10.1,5.1-16,5.3c-7.2,0.3-13.7-1.5-19.1-6.4 c-5.9-5.3-8.2-12-7.8-19.8c0.6-11.7,8.9-20.7,20.4-22.6c6.4-1,12.6-0.5,18.5,2.7c1.8,1,3.5,2.3,4.9,3.8c0.4,0.4,0.4,0.7,0,1.1 c-1.1,1-2.2,2.1-3.2,3.2c-0.5,0.6-0.8,0.4-1.3,0c-6.8-5.8-14.5-6.5-22.3-2.9c-7.1,3.3-10.2,9.3-10,17c0.3,10.4,8.2,17.7,18.6,17.8 c3.8,0,7.4-0.6,10.7-2.5c0.7-0.4,0.9-0.8,0.9-1.6c0-4.5,0-9,0-13.5c0-0.9,0.2-1.2,1.1-1.1c1.5,0.1,3,0.1,4.6,0 c0.9,0,1.1,0.3,1.1,1.1C289.4,95.1,289.4,98,289.4,100.8z"></path><path class="st0" d="M495.3,115.6c-2.4,0-4.6,0-6.7,0c-0.7,0-0.7-0.5-0.9-0.9c-1.5-3.4-3-6.8-4.5-10.2c-0.3-0.7-0.7-1-1.5-1 c-7.8,0-15.5,0-23.3,0c-0.8,0-1.3,0.2-1.6,1c-1.4,3.4-2.9,6.7-4.4,10.1c-0.3,0.7-0.6,1-1.4,0.9c-2-0.1-4.1,0-6.2,0 c1.4-3.1,2.8-6.1,4.1-9.1c5.7-12.7,11.5-25.3,17.2-38c0.4-0.8,0.8-1.1,1.7-1.1c1.6,0.1,3.1,0.1,4.7,0c0.8,0,1.1,0.2,1.4,0.9 c4.9,10.9,9.9,21.8,14.8,32.6c2.1,4.6,4.2,9.3,6.3,13.9C495.1,115,495.1,115.2,495.3,115.6z M480.3,98c-3.4-7.8-6.8-15.4-10.3-23.4 c-1.2,2.6-2.2,4.9-3.2,7.3c-2.2,5-4.4,10-6.6,15.1c-0.2,0.4-0.8,1,0.4,1C467.1,98,473.6,98,480.3,98z"></path><path class="st0" d="M126.1,22.3c3.1-2.5,6-4.8,9-7.1c3.5-2.8,7-5.5,10.4-8.3c0.7-0.6,1.4-0.8,2.3-0.7c10.4,0.7,20.3,3.3,29.2,8.9 c3,1.9,5.7,4.2,8.3,6.7c0.5,0.5,0.6,0.8,0,1.4c-2.9,2.7-5.8,5.4-8.6,8.2c-0.6,0.6-0.9,0.5-1.5,0c-6.8-6.1-14.7-9.8-23.7-11.1 c-8.2-1.2-16.2-0.6-24.1,1.9c-0.2,0.1-0.5,0.2-0.7,0.2C126.5,22.3,126.5,22.3,126.1,22.3z"></path><path class="st0" d="M218.4,60.1c0,17.7,0,35.3,0,53c0,1-0.2,1.5-1.3,1.3c-0.9-0.1-1.8,0-2.6,0c-0.5,0-0.7-0.2-0.7-0.7 c0-0.2,0-0.5,0-0.7c0-35.4,0-70.7,0-106.1c0-1.1,0.2-1.5,1.3-1.4c1.1,0.1,2.5-0.4,3.1,0.2c0.5,0.6,0.2,2,0.2,3 C218.4,25.9,218.4,43,218.4,60.1z"></path><path class="st0" d="M302.4,91.5c0-7.6,0-15.3,0-22.9c0-0.9,0.2-1.2,1.2-1.2c1.6,0.1,3.1,0.1,4.7,0c1-0.1,1.2,0.3,1.2,1.2 c0,11.9,0,23.9,0,35.8c0,1.4,0.1,2.7,0,4.1c-0.1,0.9,0.2,1.1,1.1,1.1c7.9,0,15.8,0,23.6,0c1.1,0,1.5,0.2,1.4,1.4 c-0.1,1.1-0.1,2.2,0,3.4c0.1,1.2-0.4,1.3-1.4,1.3c-8.4,0-16.7,0-25.1,0c-1.9,0-3.8,0-5.6,0c-0.8,0-1-0.2-1-1 C302.5,106.9,302.4,99.2,302.4,91.5z"></path><path class="st0" d="M502.3,91.5c0-7.6,0-15.3,0-22.9c0-0.9,0.2-1.2,1.2-1.2c1.6,0.1,3.1,0.1,4.7,0c1-0.1,1.2,0.3,1.2,1.2 c0,11.2,0,22.5,0,33.7c0,2.1,0.1,4.2,0,6.2c0,0.9,0.2,1.1,1.1,1.1c7.9,0,15.8,0,23.8,0c1,0,1.3,0.2,1.3,1.2c-0.1,1.2-0.1,2.5,0,3.7 c0.1,0.9-0.3,1.1-1.1,1.1c-7.9,0-15.8,0-23.6,0c-2.4,0-4.9,0-7.3,0c-0.8,0-1-0.2-1-1C502.4,106.9,502.3,99.2,502.3,91.5z"></path><path class="st1" d="M356.9,152.5c0-0.4,0-0.9,0-1.3c0-6.2,0-12.5,0-18.7c0-1.1,0.5-1.1,1.3-1.1c0.7,0,1.3-0.1,1.3,1 c-0.1,7.8,0,15.7,0,23.5c0,0.9-0.3,1-1.1,1.1c-1.3,0.1-2.1-0.4-2.8-1.5c-4.3-6.4-8.7-12.7-13.1-19c-0.2-0.2-0.3-0.4-0.6-0.8 c0,0.5-0.1,0.9-0.1,1.3c0,6.3,0,12.5,0,18.8c0,1-0.3,1.2-1.3,1.2c-0.9,0-1.3-0.1-1.3-1.2c0-7.8,0-15.5,0-23.3c0-0.9,0.2-1.1,1.1-1.2 c1.2-0.1,1.9,0.3,2.6,1.3c4.4,6.4,8.8,12.8,13.2,19.2c0.1,0.2,0.3,0.4,0.4,0.6C356.7,152.5,356.8,152.5,356.9,152.5z"></path><path class="st1" d="M37.5,152.7c0-0.4,0-0.8,0-1.2c0-6.4,0-12.7,0-19.1c0-1,0.4-1.1,1.2-1c0.7,0,1.3-0.2,1.3,1 c-0.1,7.8,0,15.7,0,23.5c0,0.8-0.2,1-1,1.1c-1.3,0.1-2.1-0.4-2.8-1.5c-4.5-6.6-9-13.2-13.6-19.7c-0.4,0.3-0.2,0.7-0.2,1 c0,6.4,0,12.7,0,19.1c0,1-0.4,1.2-1.2,1.1c-0.8,0-1.4,0.1-1.4-1.1c0.1-7.8,0-15.6,0-23.4c0-0.8,0.2-1.1,1-1.1 c1.3-0.1,2.1,0.4,2.8,1.4c4.4,6.5,8.8,12.9,13.3,19.3C37.1,152.4,37.1,152.6,37.5,152.7z"></path><path class="st1" d="M489.8,152.5c0-0.4,0-0.9,0-1.3c0-6.2,0-12.5,0-18.7c0-1.1,0.5-1.1,1.3-1.1c0.8,0,1.3,0,1.2,1.1 c-0.1,7.8,0,15.6,0,23.4c0,0.9-0.2,1.1-1.1,1.1c-1.2,0-1.9-0.3-2.6-1.4c-4.3-6.3-8.7-12.6-13-18.9c-0.2-0.3-0.4-0.6-0.6-0.9 c-0.3,0.4-0.2,0.7-0.2,1.1c0,6.3,0,12.6,0,18.9c0,1.1-0.4,1.2-1.3,1.2c-0.9,0-1.3-0.1-1.3-1.2c0.1-7.8,0-15.5,0-23.3 c0-1,0.3-1.1,1.2-1.2c1.2-0.1,1.9,0.4,2.6,1.4c4.3,6.3,8.7,12.6,13,18.9c0.2,0.3,0.4,0.6,0.6,0.8 C489.6,152.5,489.7,152.5,489.8,152.5z"></path><path class="st1" d="M116.2,152.8c-3.4,4.3-7.3,5.7-12.3,4.2c-5-1.5-7.4-5.1-8.3-10c-0.6-3.8-0.2-7.5,1.9-10.8 c3.7-6.1,13.2-7.2,18-2.1c1.3,1.3,2,2.9,2.5,4.7c0.1,0.6,0,0.7-0.6,0.7c-1,0-1.8,0.1-2.2-1.3c-1-3.4-5.1-5.6-9-5 c-3.6,0.5-6.1,2.5-7.3,5.9c-1.5,3.9-1.4,7.8,0.5,11.6c1.9,3.8,5.9,5.5,10.4,4.5c3.7-0.8,6.2-4,6.4-8.1c0-0.7-0.1-1-0.9-0.9 c-2.2,0.1-4.4,0-6.6,0c-0.8,0-1.2,0-1.2-1.1c0-0.9,0.2-1.2,1.1-1.1c2.9,0.1,5.8,0,8.8,0c0.7,0,1.1,0.1,1,1c0,3.7,0,7.4,0,11.1 c0,0.7-0.1,1-0.9,1c-0.8,0-1.1-0.2-1.1-1C116.5,155,116.5,153.9,116.2,152.8z"></path><path class="st1" d="M141.5,144.7c2.9,0.8,3.8,2.7,4,5.1c0.1,1.7,0.1,3.4,0.4,5.1c0.1,0.7,0.4,1.4,0.7,2c-0.1,0.1-0.1,0.1-0.1,0.1 c-2.7,0.2-3,0-3.1-2.7c-0.1-1.6-0.1-3.2-0.5-4.8c-0.5-2.6-2-3.8-4.6-3.8c-2.7,0-5.4,0-8.2,0c-0.9,0-1.1,0.3-1,1.1c0,3,0,6.1,0,9.1 c0,1.1-0.5,1.1-1.3,1.1c-0.7,0-1.3,0.1-1.3-1.1c0.1-7.8,0-15.7,0-23.5c0-0.4-0.3-1,0.6-1c4.4,0.1,8.9-0.3,13.3,0.3 c2.4,0.3,4.4,1.6,5.2,4c0.8,2.5,0.5,4.9-1.1,7C143.8,143.7,142.8,144.1,141.5,144.7z M134.6,133.6c-1.8,0-3.3,0-4.7,0 c-0.6,0-0.8,0.2-0.8,0.7c0,2.8,0,5.7,0,8.5c0,0.4,0,0.7,0.5,0.7c3.3-0.1,6.6,0.3,9.9-0.2c2.5-0.4,4-2.5,3.9-5 c-0.1-2.7-1.5-4.2-4.2-4.6C137.6,133.5,136,133.7,134.6,133.6z"></path><path class="st1" d="M390.2,157.5c-2.1-0.1-4.2-0.3-6.2-1.4c-2.7-1.5-3.9-3.8-3.9-6.9c0-0.5,0.1-0.9,0.7-0.7 c0.6,0.2,1.7-0.6,1.7,0.5c0.2,5.5,5.2,6.6,9.2,6.2c1.2-0.1,2.3-0.4,3.3-1.1c1.6-1,2.6-2.3,2.5-4.2c-0.1-1.8-1.3-2.9-2.8-3.5 c-2.2-1-4.6-1.3-6.9-1.9c-0.8-0.2-1.6-0.4-2.4-0.7c-2.4-0.7-4.1-2.2-4.4-4.8c-0.3-2.8,0.6-5.1,3-6.7c3.4-2.3,9.4-1.9,12.5,0.6 c1.6,1.3,2.5,3,2.6,5c0,0.6-0.1,0.8-0.8,0.8c-1.1,0-1.7,0-2-1.4c-0.4-2.4-2.9-4.1-5.9-4.4c-1.3-0.1-2.6,0.1-3.9,0.5 c-2.3,0.8-3.5,2.9-3.1,5.3c0.3,1.6,1.5,2.4,2.9,2.8c2.2,0.6,4.5,1.1,6.7,1.7c1.5,0.4,3,0.9,4.3,1.7c3.9,2.6,3.4,8.6-0.8,11 C394.7,157.2,392.5,157.5,390.2,157.5z"></path><path class="st1" d="M284,157.5c-2-0.1-3.9-0.3-5.8-1.2c-2.8-1.3-4.5-4-4.4-7.1c0-0.5,0.1-0.9,0.7-0.8c0.6,0.2,1.8-0.6,1.8,0.6 c0.2,2.8,1.4,4.7,4.1,5.6c3.3,1,6.5,1.1,9.3-1.2c2.5-2,2-5.3-0.8-6.8c-2.3-1.2-4.9-1.4-7.3-2.1c-0.9-0.3-1.8-0.5-2.6-0.7 c-2.4-0.8-4-2.3-4.3-4.9c-0.2-2.6,0.6-4.8,2.8-6.4c3.5-2.4,9.6-2.2,12.8,0.5c1.6,1.3,2.4,3,2.6,5.1c0,0.6-0.1,0.7-0.7,0.8 c-1.2,0.1-1.8-0.1-2.1-1.5c-0.5-2.4-3-4.1-6-4.3c-1.3-0.1-2.6,0.1-3.8,0.5c-2.2,0.7-3.4,2.8-3.1,5.1c0.2,1.7,1.4,2.6,3,3 c2.2,0.6,4.5,1.1,6.7,1.7c1.1,0.3,2.2,0.6,3.3,1.1c2.2,1.1,3.5,2.7,3.6,5.2c0.1,2.9-1,5-3.5,6.4C288.4,157.3,286.2,157.5,284,157.5z "></path><path class="st1" d="M447.5,144.2c0-3.9,0-7.8,0-11.7c0-0.8,0.2-1.1,1.1-1.1c5.2,0,10.4,0.1,15.6,0c1,0,1,0.4,1.1,1.2 c0.1,1-0.3,1.1-1.1,1.1c-4.3,0-8.6,0-13,0c-0.8,0-1.1,0.2-1.1,1c0.1,2.4,0.1,4.7,0,7.1c0,0.9,0.3,1,1.1,1c4,0,8,0,12,0 c0.9,0,1.1,0.2,1.1,1.1c0,1-0.3,1.1-1.2,1.1c-4,0-8.1,0-12.1,0c-0.7,0-1,0.1-0.9,0.9c0.1,2.7,0.1,5.4,0,8.1c0,0.8,0.2,1,1,1 c4.4,0,8.9,0,13.3,0c0.8,0,1.1,0.2,1.1,1c0,0.9-0.2,1.2-1.1,1.1c-5.2,0-10.5,0-15.7,0c-0.9,0-1.1-0.3-1.1-1.2 C447.5,152,447.5,148.1,447.5,144.2z"></path><path class="st1" d="M71.9,144.2c0-3.9,0-7.8,0-11.6c0-0.9,0.3-1.1,1.1-1.1c5.1,0,10.2,0,15.4,0c0.9,0,1.2,0.2,1.2,1.2 c0,1.1-0.5,1.1-1.3,1.1c-4.3,0-8.6,0-12.8,0c-0.8,0-1.1,0.2-1.1,1.1c0.1,2.4,0.1,4.7,0,7.1c0,0.8,0.2,1,1,1c4,0,8.1,0,12.1,0 c1,0,1.1,0.3,1.1,1.2c0,0.9-0.3,1-1.1,1c-4,0-8.1,0-12.1,0c-0.8,0-1,0.2-1,1c0.1,2.7,0.1,5.4,0,8c0,0.9,0.3,1,1.1,1 c4.4,0,8.7,0,13.1,0c0.8,0,1.2,0,1.2,1c0,1.1-0.4,1.1-1.3,1.1c-5.1,0-10.2,0-15.2,0c-1.1,0-1.4-0.2-1.4-1.4 C71.9,151.8,71.9,148,71.9,144.2z"></path><path class="st1" d="M237,144.2c0-3.9,0-7.8,0-11.7c0-0.8,0.2-1,1-1c5.2,0,10.5,0,15.7,0c1,0,0.9,0.4,1,1.2c0,0.8-0.1,1.1-1,1.1 c-4.4,0-8.7,0-13.1,0c-0.8,0-1.1,0.2-1.1,1c0.1,2.4,0.1,4.7,0,7.1c0,0.8,0.2,1,1,1c4,0,8.1,0,12.1,0c0.9,0,1.1,0.3,1.1,1.2 c0,0.9-0.3,1-1.1,1c-4,0-8.1,0-12.1,0c-0.7,0-1,0.1-1,1c0.1,2.7,0,5.4,0,8.1c0,0.8,0.2,0.9,0.9,0.9c4.4,0,8.9,0,13.3,0 c0.8,0,1.1,0.2,1.1,1c0,0.9-0.2,1.2-1.1,1.1c-5.2,0-10.4-0.1-15.6,0c-1,0-1.2-0.3-1.2-1.2C237,151.9,237,148,237,144.2z"></path><path class="st1" d="M529.5,144.1c0-3.8,0-7.7,0-11.5c0-0.9,0.1-1.2,1.1-1.2c5.2,0.1,10.3,0,15.5,0c0.9,0,1.1,0.2,1.1,1.1 c0,0.9-0.2,1.1-1.1,1.1c-4.3,0-8.6,0-13,0c-0.9,0-1.2,0.2-1.1,1.1c0.1,2.4,0.1,4.7,0,7.1c0,0.8,0.2,0.9,0.9,0.9c4.1,0,8.2,0,12.2,0 c1,0,1,0.4,1.1,1.2c0,0.9-0.4,1-1.1,1c-4,0-8,0-12,0c-0.8,0-1.2,0.1-1.2,1.1c0.1,2.6,0.1,5.3,0,7.9c0,0.9,0.3,1.1,1.1,1.1 c4.4,0,8.8,0,13.2,0c0.8,0,1.2,0.1,1.1,1c0,0.8-0.1,1.2-1.1,1.2c-5.3-0.1-10.6,0-15.8,0c-0.8,0-1-0.2-1-1 C529.5,152.1,529.5,148.1,529.5,144.1z"></path><path class="st0" d="M303.6,145.1c4.6-4.3,9.1-8.3,13.4-12.4c1-0.9,1.9-1.4,3.3-1.2c0.4,0.1,0.8,0,1.2,0c0.1,0.4-0.2,0.5-0.4,0.7 c-3.3,3-6.6,6.1-9.9,9.1c-0.7,0.6-0.7,1-0.1,1.8c3.5,4.3,6.9,8.6,10.3,12.9c0.2,0.3,0.6,0.5,0.6,1.1c-0.9,0-1.7,0-2.6,0 c-0.5,0-0.7-0.4-0.9-0.7c-3.1-3.9-6.3-7.8-9.4-11.8c-0.5-0.6-0.8-0.8-1.3-0.1c-0.2,0.3-0.5,0.4-0.7,0.7c-1.1,1.1-2.7,1.9-3.3,3.2 c-0.6,1.4-0.2,3.2-0.2,4.8c0,0.9-0.1,1.8,0,2.6c0.1,1.1-0.3,1.2-1.3,1.2c-0.9,0-1.3-0.1-1.2-1.2c0.1-1.8,0-3.6,0-5.4c0-6,0-12,0-18 c0-1.1,0.5-1.1,1.3-1.1c0.8,0,1.3,0,1.2,1.1c-0.1,3.7,0,7.4,0,11.1C303.6,144,303.6,144.4,303.6,145.1z"></path><path class="st1" d="M499.6,144.1c0.1-4.3,1.3-8.3,5.1-11c4.9-3.6,12.5-2.5,15.8,2.2c0.7,1,1.1,2,1.4,3.2c0.2,0.7,0.1,1-0.7,1 c-1.1,0-1.7-0.2-2.1-1.4c-2.1-5.7-10.4-6.6-14.3-1.7c-3.3,4.2-3.4,11.6-0.1,15.8c2.3,3,5.5,3.9,9.1,3c3.4-0.8,5.1-3.4,5.9-6.7 c0.1-0.4-0.1-1,0.4-1.1c0.7-0.1,1.4-0.1,2,0c0.4,0,0.2,0.5,0.1,0.7c-1,6.7-5.8,10-11.9,9.4c-6.4-0.6-10-5.4-10.6-11.5 C499.7,145.4,499.7,144.8,499.6,144.1z"></path><path class="st1" d="M408.7,144.4c0.1,2.8,0.7,5.6,2.6,7.9c2.4,2.8,5.5,3.7,9,2.8c3.5-0.9,5.2-3.6,5.9-7c0.1-0.3-0.2-0.8,0.4-0.8 c0.7,0,1.4,0,2.1,0.1c0.2,0,0,0.5,0,0.8c-1,5.6-4.2,8.8-9.5,9.4c-5.3,0.6-10.1-2.3-12-7.2c-1.9-5.2-1.7-10.2,1.6-14.8 c4.4-6.2,14.6-6,18.5,0.3c0.5,0.8,0.8,1.7,1.1,2.7c0.2,0.7,0.1,1-0.8,1c-1.1,0-1.7-0.2-2.1-1.3c-1-3-3.3-4.5-6.4-4.9 c-3.3-0.4-6.2,0.7-8.2,3.4C409.3,138.9,408.7,141.5,408.7,144.4z"></path><path class="st1" d="M162.7,131.5c1.2-0.4,1.6,0.3,2,1.2c3,7.7,6,15.4,9,23.1c0.4,0.9,0.4,1.2-0.7,1.2c-1.2,0-1.8-0.3-2.1-1.5 c-0.6-1.9-1.5-3.8-2.2-5.7c-0.2-0.6-0.5-0.8-1.1-0.8c-3.3,0-6.6,0-9.9,0c-0.6,0-0.9,0.3-1.1,0.8c-0.8,2.1-1.6,4.2-2.4,6.3 c-0.2,0.6-2.3,1.1-2.7,0.6c-0.3-0.3,0-0.7,0.2-1c1.9-4.9,3.9-9.7,5.9-14.6c1.2-2.9,2.4-5.7,3.5-8.6 C161.2,131.7,161.6,131.1,162.7,131.5z M162.7,134.3c-0.1,0.1-0.2,0.1-0.2,0.2c-1.5,3.9-3.1,7.8-4.6,11.7c-0.3,0.7,0.1,0.7,0.6,0.7 c2.7,0,5.4,0,8.1,0c0.7,0,0.8-0.1,0.6-0.8C165.7,142.2,164.2,138.3,162.7,134.3z"></path><path class="st1" d="M220.5,154.1c2.6-7.3,5.2-14.4,7.8-21.5c0.3-1,1.9-1.6,2.7-1.1c0.5,0.3,0.1,0.6,0,0.9c-1.1,2.9-2.1,5.8-3.2,8.7 c-1.8,4.9-3.7,9.8-5.5,14.8c-0.3,0.9-0.7,1.2-1.6,1.1c-0.9-0.1-1.7,0.2-2.1-1.1c-2.8-7.8-5.7-15.6-8.6-23.4c-0.1-0.3-0.3-0.6-0.2-1 c2.5-0.2,2.5-0.2,3.3,2c2.4,6.6,4.8,13.2,7.2,19.8C220.2,153.5,220.3,153.7,220.5,154.1z"></path><path class="st1" d="M57.2,145.4c0,3.6,0,7.1,0,10.7c0,1.1-0.6,1-1.3,1c-0.7,0-1.4,0.2-1.4-1c0.1-7,0-14.1,0.1-21.1 c0-1.1-0.3-1.3-1.3-1.3c-2.2,0.1-4.4,0-6.6,0.1c-0.9,0-0.9-0.4-0.9-1.1c0-0.6-0.1-1.2,0.9-1.2c6.2,0.1,12.3,0.1,18.5,0 c1,0,0.9,0.5,0.9,1.1c0,0.6,0.2,1.2-0.8,1.1c-2.3-0.1-4.6,0-7,0c-0.9,0-1.1,0.2-1.1,1.1C57.2,138.3,57.2,141.8,57.2,145.4z"></path><path class="st0" d="M186.1,145.3c0,3.6-0.1,7.1,0,10.7c0,1.2-0.6,1-1.3,1c-0.8,0-1.2,0-1.2-1c0-7,0-14,0.1-21 c0-1.2-0.3-1.5-1.5-1.4c-2.2,0.1-4.4,0-6.6,0.1c-0.9,0-0.8-0.5-0.8-1c0-0.5-0.3-1.2,0.8-1.2c6.2,0,12.5,0,18.7,0 c1,0,0.7,0.6,0.7,1.1c0,0.5,0.3,1.1-0.7,1.1c-2.3-0.1-4.6,0-6.8,0c-1,0-1.4,0.2-1.3,1.3C186.2,138.4,186.1,141.8,186.1,145.3z"></path><path class="st1" d="M203.5,144.2c0,3.9,0,7.8,0,11.7c0,1.1-0.5,1-1.2,1c-0.7,0-1.4,0.2-1.4-1c0.1-7.8,0.1-15.7,0-23.5 c0-1.1,0.5-1.1,1.3-1.1c0.8,0,1.3,0,1.3,1.1C203.5,136.4,203.5,140.3,203.5,144.2z"></path><path class="st1" d="M330.5,144.2c0,3.9,0,7.8,0,11.7c0,1-0.5,1.1-1.2,1c-0.7-0.1-1.4,0.3-1.4-1c0-7.9,0.1-15.7,0-23.6 c0-1.3,0.8-0.9,1.5-1c0.9-0.1,1.2,0.2,1.1,1.1C330.5,136.4,330.5,140.3,330.5,144.2z"></path><path class="st1" d="M438.8,144.1c0,3.9-0.1,7.8,0,11.7c0,1.1-0.5,1.1-1.3,1.2c-0.9,0-1.3-0.2-1.3-1.2c0-7.7,0.1-15.5,0-23.2 c0-1.2,0.5-1.2,1.4-1.1c0.8,0,1.3,0,1.3,1.1C438.7,136.4,438.8,140.2,438.8,144.1z"></path><path class="st0" d="M8.6,144.2c0-3.9,0-7.8,0-11.6c0-1.1,0.3-1.2,1.3-1.2c0.9,0,1.2,0.1,1.2,1.1c-0.1,7.8-0.1,15.6,0,23.4 c0,1.1-0.5,1.1-1.3,1.1c-0.9,0-1.3-0.1-1.2-1.1C8.7,152,8.6,148.1,8.6,144.2z"></path><path class="st0" d="M104.2,39.8c0-0.1,0.1-0.2,0.2-0.1C104.5,39.8,104.4,39.9,104.2,39.8C104.3,39.9,104.2,39.8,104.2,39.8z"></path></svg>