<svg xmlns="http://www.w3.org/2000/svg" xmlns:xlink="http://www.w3.org/1999/xlink" id="Layer_1" x="0px" y="0px" width="308px" height="135px" viewBox="0 0 308 135" xml:space="preserve"><path fill="#6E4210" d="M257.143,121.091c-2.338,0.671-4.678,1.331-7.012,2.017c-1.271,0.373-2.676,0.691-3.839,0.248 c-1.778-0.68-3.12-0.375-4.548,0.725c-0.795,0.611-1.85,0.716-2.753,0.113c-1.002-0.668-1.199-1.697-0.925-2.813 c0.383-1.549,0.803-3.087,1.406-5.392c-2.772,1.826-4.43,3.799-5.724,6.068c-0.506,0.887-0.508,2.256-1.933,2.051 c-1.387-0.201-1.077-1.584-1.338-2.726c-2.19,1.308-4.342,2.666-6.399-0.075c-0.343-0.455-0.772,0.282-1.146,0.49 c-2.207,1.236-4.313,3.313-6.885,0.575c-0.551-0.585-1.005,0.185-1.441,0.435c-1.69,0.969-3.342,2.002-5.196,2.65 c-1.411,0.493-2.871,0.962-4.164-0.104c-1.371-1.131-1.183-2.75-0.959-4.3c0.09-0.622,0.592-1.181,0.239-2.007 c-1.442,0.449-1.905,2.119-3.229,2.646c-0.686,0.272-1.547,1.096-2.07-0.01c-0.355-0.748,0.061-1.403,0.951-1.899 c2.295-1.279,4.156-2.886,3.215-6.003c-0.343-1.131,0.638-1.863,1.395-2.641c-0.341-0.097-0.497-0.186-0.646-0.174 c-2.834,0.223-6.071-0.318-8.388,0.896c-2.46,1.292-1.204,5.003-2.144,7.531c-0.619,1.662-0.98,3.437-1.834,5.008 c-0.283,0.525-0.398,1.728-1.412,1.18c-0.838-0.453-1.073-1.313-0.482-2.305c1.658-2.778,2.162-5.914,2.676-9.043 c0.156-0.95,0.316-1.688-1.129-1.722c-1.127-0.024-1.715-0.89-1.457-2.063c0.236-1.076,0.971-1.891,2.07-1.598 c1.76,0.469,2.122-0.551,2.352-1.824c0.516-2.875,0.961-5.762,1.496-8.633c0.347-1.861-0.278-1.984-1.891-1.414 c-2.682,0.951-5.48,1.545-8.348,1.53c-2.639-0.013-4.34-2.084-4.037-4.698c0.084-0.719,0.344-1.259,1.027-1.506 c0.592-0.215,1.295-0.067,1.567,0.39c2.271,3.795,5.871,2.433,9.008,2.183c3.414-0.271,3.392-0.52,3.271-3.9 c-0.047-1.3-0.072-2.601-0.102-3.9c-0.019-0.71,0.12-1.33,1.01-1.348c0.842-0.018,1.858,0.05,1.832,1.102 c-0.035,1.327,0.729,2.004,1.489,2.852c1.718,1.908,1.329,2.976-1.192,3.604c0.662,0.824,1.516,0.547,2.371,0.454 c12.037-1.302,24.063-2.746,36.22-2.103c5.847,0.311,11.671,0.807,17.467,1.615c1.519,0.212,3.28,0.456,3.151,2.615 c-0.129,2.18-1.909,2.908-3.627,3.441c-1.115,0.347-1.701-0.597-1.731-1.533c-0.06-1.871-1.229-2.357-2.751-2.76 c-4.907-1.302-9.916-1.734-14.957-1.865c-11.654-0.301-23.207,0.818-34.723,2.508c-2.019,0.296-2.996,0.896-3.23,3.205 c-0.308,3.04-1.283,6.02-2.072,8.999c-0.317,1.198-0.151,1.616,1.183,1.5c1.858-0.16,3.733-0.183,5.603-0.189 c1.889-0.007,1.609,0.188,2.543,1.86c0.403,0.725,1.764,1.872,3.163,1.455c0.917-0.273,1.785-0.768,2.613-1.266 c0.795-0.477,1.554-1.586,2.385-0.23c0.729,1.186-0.043,2.021-1.077,2.535c-2.457,1.221-4.006,3.248-5.158,5.643 c-0.281,0.582-0.556,1.188-0.695,1.813c-0.479,2.123,0.764,3.424,2.669,2.464c3.425-1.728,7.149-3.06,9.369-6.655 c1.631-2.641,4.046-4.453,7.348-4.594c1.155-0.049,2.332,0.109,3.046,1.172c0.791,1.178-0.016,2.162-0.568,3.133 c-0.36,0.633-0.844,1.197-1.199,1.834c-0.344,0.609-0.93,1.307-0.112,1.938c0.733,0.567,1.371,0.057,1.949-0.407 c2.478-1.986,4.923-4.001,6.678-6.707c0.819-1.263,1.654-2.472,2.987-0.441c0.531,0.81,0.979-0.077,1.413-0.192 c1.028-0.272,1.983-0.313,2.655,0.57c0.633,0.83,0.242,1.729-0.235,2.506c-0.896,1.461-1.654,2.981-2.138,4.627 c-0.41,1.396,0.14,1.904,1.479,1.396c1.893-0.717,3.739-1.504,5.249-2.95c1.817-1.741,3.678-3.444,5.62-5.043 c0.809-0.664,2.016-1.194,2.691,0.15c0.619,1.233-0.451,1.675-1.4,2.044c-2.219,0.865-4.201,2.123-5.932,3.752 c-0.431,0.404-1.17,0.854-0.765,1.597c0.31,0.565,1.05,0.479,1.554,0.331c4.871-1.41,9.987-2.236,13.477-6.599 c3.449-4.312,6.183-9.11,9.529-13.483c1.627-2.127,3.31-4.216,4.996-6.298c0.615-0.76,1.345-1.425,2.274-1.794 c0.685-0.271,1.417-0.533,2.036,0.102c0.537,0.547,0.292,1.183,0.117,1.828c-0.607,2.241-1.764,4.17-3.213,5.955 c-3.06,3.768-6.276,7.389-10,10.547c0.688,0.822,1.19,0.306,1.653,0.172c0.978-0.279,1.954-0.508,2.688,0.41 c0.725,0.906,0.306,1.875-0.122,2.756c-1.413,2.916-4.094,4.281-6.889,5.486c1.965,2.93,6.435,3.697,9.101,1.585 c0.19-0.151,0.338-0.366,0.543-0.487c0.91-0.532,1.694-2.357,2.67-1.418c1.026,0.987-0.471,2.148-1.223,2.989 c-2.248,2.515-5.32,3.213-8.419,1.918c-1.795-0.75-3.491-1.725-5.267-2.524c-1.396-0.633-2.728-0.836-3.622,0.893 c-0.445,0.859-1.104,1.604-1.611,2.434c-0.448,0.733-0.92,1.103-1.754,0.518c-0.748-0.523-0.877-1.102-0.33-1.84 c0.769-1.038,1.521-2.088,2.281-3.131c0.088-0.157,0.174-0.314,0.262-0.473C257.54,121.064,257.342,121.078,257.143,121.091z  M268.615,107.494c0.469,0.479,1.018,0.453,1.354,0.111c3.533-3.578,7.046-7.179,9.823-11.403c0.29-0.441,0.598-1.06-0.037-1.519 c-0.535-0.39-1.117-0.242-1.566,0.144c-0.613,0.524-1.195,1.099-1.717,1.714C273.554,99.98,271.256,103.864,268.615,107.494z  M224.723,116.323c0.275-0.913,0.021-1.296-1.061-1.089c-2.042,0.391-4.908,3.004-5.316,4.938c-0.13,0.612-0.228,1.118,0.711,1.094 C221.009,121.216,224.545,118.197,224.723,116.323z M263.578,118.302c2.941-0.095,5.203-1.387,7.064-4.364 C267.413,114.609,265.547,116.486,263.578,118.302z M267.466,112.244c-0.114,0.061-0.219,0.117-0.323,0.174 c0.055,0.053,0.118,0.155,0.158,0.146c0.113-0.024,0.217-0.096,0.322-0.148C267.573,112.361,267.523,112.307,267.466,112.244z"></path><path fill="#673904" d="M48.494,49.256c-3.996,0-7.938-0.022-11.877,0.016c-1.021,0.01-1.372-0.737-1.859-1.354 c-2.668-3.377-5.358-6.738-7.964-10.163c-0.743-0.979-1.168-0.946-2.286-0.369c-3.91,2.02-4.172,5.4-3.694,9.058 c0.313,2.4-0.546,3.158-2.88,2.844c-2.307-0.31-5.425,0.997-6.754-0.522c-1.143-1.304-0.354-4.332-0.355-6.598 c-0.014-10.724,0.042-21.449-0.053-32.172c-0.016-1.835,0.441-2.432,2.279-2.264c1.854,0.17,3.743,0.151,5.6,0.004 c1.671-0.132,2.209,0.329,2.178,2.096c-0.114,6.563-0.045,13.129-0.045,19.997c2.055-1.131,3.686-2.484,4.991-4.003 c5.23-6.086,11.683-8.543,19.595-7.22c0.609,0.102,1.251,0.014,2.604,0.014c-1.24,1.041-1.986,1.691-2.758,2.311 c-3.419,2.747-6.802,5.541-10.292,8.194c-1.229,0.935-1.196,1.513-0.249,2.647c4.271,5.108,8.451,10.293,12.646,15.465 C47.756,47.773,48.409,48.197,48.494,49.256z"></path><path fill="#673904" d="M148.232,49.259c-2.52,0-4.715-0.113-6.893,0.032c-2.175,0.146-3.864-0.11-3.707-3.064 c-6.488,4.412-13.387,4.911-20.508,3.438c-3.636-0.752-6.326-2.833-7.226-6.724c-1.17-5.058,1.015-9.079,5.923-10.728 c3.515-1.181,7.206-1.099,10.834-1.44c2.508-0.235,5.025-0.354,7.534-0.567c1.481-0.126,2.684-0.633,2.885-2.379 c0.202-1.754-0.366-3.102-2.093-3.654c-3.402-1.088-6.877-1.131-10.328-0.264c-1.419,0.356-2.383,1.432-2.885,2.774 c-0.423,1.129-1.141,1.374-2.24,1.335c-2.111-0.072-4.228-0.08-6.338,0c-1.322,0.05-1.682-0.247-1.318-1.648 c1.125-4.337,4.038-6.81,8.179-7.815c6.499-1.577,13.071-1.539,19.544,0.113c5.376,1.372,7.504,4.35,7.521,9.861 c0.014,4.389,0.025,8.777-0.005,13.165C147.096,44.139,147.166,46.563,148.232,49.259z M127.51,44.463 c0.201-0.015,1.098-0.024,1.975-0.162c5.199-0.815,7.996-3.771,7.975-8.142c-0.008-1.575-0.432-1.671-1.792-1.218 c-1.284,0.428-2.695,0.497-4.059,0.66c-2.73,0.326-5.478,0.527-8.194,0.938c-1.748,0.264-2.942,1.294-3.1,3.212 c-0.158,1.952,0.775,3.241,2.469,4.057C124.06,44.423,125.434,44.495,127.51,44.463z"></path><path fill="#673904" d="M233.02,49.259c-2.397,0-4.51-0.091-6.607,0.025c-2.171,0.121-4.128,0.135-4.016-3.035 c-6.463,4.388-13.358,4.896-20.47,3.418c-4.585-0.953-7.176-4.02-7.472-8.16c-0.334-4.688,1.717-7.794,6.164-9.292 c3.516-1.185,7.206-1.099,10.835-1.442c2.507-0.236,5.024-0.358,7.532-0.57c1.479-0.125,2.699-0.596,2.879-2.369 c0.174-1.735-0.317-3.109-2.076-3.665c-3.406-1.076-6.877-1.128-10.33-0.259c-1.421,0.357-2.396,1.415-2.879,2.771 c-0.41,1.156-1.156,1.366-2.24,1.334c-2.029-0.061-4.066-0.086-6.094,0.005c-1.508,0.067-1.994-0.224-1.516-1.893 c1.396-4.87,4.975-7.085,9.541-7.928c5.884-1.086,11.814-1.075,17.66,0.333c5.694,1.371,8.014,4.421,8.033,10.246 c0.012,3.413-0.029,6.827,0.012,10.239C232.02,42.394,231.583,45.812,233.02,49.259z M222.078,34.501 c-4.332,1.429-8.689,1.146-12.917,1.832c-3.03,0.491-4.085,1.605-4.028,3.92c0.055,2.191,1.641,3.739,4.334,4.097 c2.355,0.313,4.697,0.167,6.971-0.583C220.924,42.287,222.648,39.508,222.078,34.501z"></path><path fill="#673904" d="M88.706,49.26c-2.532,0-4.734-0.152-6.906,0.042c-2.246,0.201-3.633-0.332-3.487-3.076 c-6.416,4.379-13.325,4.932-20.457,3.456c-4.801-0.994-7.301-4.088-7.531-8.609c-0.225-4.396,1.839-7.398,6.119-8.849 c3.515-1.19,7.209-1.103,10.838-1.449c2.508-0.239,5.025-0.366,7.537-0.564c1.613-0.128,2.822-0.751,2.984-2.583 c0.16-1.8-0.645-3.027-2.33-3.528c-3.252-0.966-6.564-1.013-9.871-0.274c-1.545,0.345-2.594,1.404-3.147,2.816 c-0.436,1.112-1.095,1.418-2.216,1.378c-2.111-0.077-4.23-0.089-6.34,0.001c-1.412,0.061-1.699-0.505-1.359-1.737 c0.956-3.452,3.043-6.039,6.424-7.125c7.639-2.453,15.378-2.383,22.99,0.117c3.882,1.275,5.806,4.249,5.806,8.39 c-0.001,5.04,0.017,10.081,0.013,15.121C87.77,44.909,88.158,46.977,88.706,49.26z M67.454,44.524 c0.97-0.081,1.952-0.085,2.905-0.255c4.948-0.878,7.752-3.735,7.855-7.854c0.033-1.362,0.011-2.199-1.813-1.502 c-1.329,0.507-2.855,0.519-4.301,0.694c-2.654,0.322-5.32,0.547-7.967,0.919c-1.791,0.251-2.975,1.3-3.15,3.181 c-0.179,1.915,0.703,3.266,2.426,4.088C64.692,44.407,66.061,44.499,67.454,44.524z"></path><path fill="#673904" d="M163.783,22.924c5.66-5.218,11.818-6.093,18.472-4.009c4.479,1.403,6.847,4.592,6.937,9.234 c0.127,6.497,0.022,12.998,0.091,19.496c0.014,1.282-0.382,1.697-1.654,1.638c-2.666-0.125-6.076,0.853-7.793-0.451 c-1.642-1.246-0.415-4.853-0.491-7.42c-0.087-2.922-0.011-5.849-0.023-8.773c-0.021-4.174-1.346-6.207-4.426-6.83 c-4.785-0.967-8.799,0.742-10.291,4.391c-0.655,1.605-0.82,3.294-0.818,5.011c0.005,4.144-0.045,8.287,0.027,12.43 c0.021,1.271-0.343,1.703-1.639,1.646c-2.271-0.099-4.55-0.092-6.82-0.002c-1.228,0.048-1.476-0.441-1.473-1.553 c0.03-12.836,0.034-25.672-0.005-38.508c-0.004-1.208,0.42-1.511,1.547-1.475c2.272,0.072,4.554,0.104,6.822-0.009 c1.394-0.069,1.573,0.549,1.56,1.717C163.752,13.816,163.783,18.177,163.783,22.924z"></path><path fill="#673904" d="M248.428,24.177c0.908-0.163,1.193-0.907,1.627-1.434c3.371-4.094,7.797-5.25,12.87-4.783 c1.052,0.097,1.39,0.494,1.366,1.5c-0.047,2.11-0.086,4.225,0.012,6.33c0.064,1.376-0.378,1.688-1.666,1.32 c-2.385-0.682-4.84-0.667-7.236-0.171c-4.282,0.885-6.672,3.951-6.756,8.591c-0.069,3.895-0.072,7.794,0.015,11.688 c0.032,1.48-0.218,2.208-1.941,2.08c-2.18-0.164-4.383-0.1-6.571-0.016c-1.201,0.046-1.5-0.407-1.496-1.543 c0.037-9.172,0.041-18.345-0.004-27.519c-0.006-1.322,0.508-1.745,1.726-1.607c0.401,0.044,0.812,0.004,1.217,0.006 c2.029,0.013,4.388-0.613,5.997,0.215C249.314,19.726,247.708,22.388,248.428,24.177z"></path><path fill="#673904" d="M104.555,28.432c0.001,6.173-0.059,12.347,0.039,18.519c0.026,1.72-0.271,2.53-2.223,2.35 c-2.013-0.185-4.064-0.151-6.085-0.006c-1.589,0.114-1.853-0.507-1.847-1.94c0.053-12.589,0.062-25.18-0.008-37.769 c-0.01-1.579,0.508-1.919,1.941-1.844c2.105,0.11,4.229,0.127,6.332-0.004c1.549-0.097,1.9,0.464,1.883,1.933 C104.512,15.923,104.555,22.178,104.555,28.432z"></path><path fill="#6E4210" d="M124.357,117.618c-1.353,1.723-2.594,3.573-4.576,4.653c-1.416,0.771-2.959,1.3-4.109-0.381 c-0.554-0.809-0.932-0.535-1.533-0.189c-1.19,0.686-2.392,1.369-3.646,1.925c-0.901,0.399-1.915,0.544-2.751-0.217 c-0.9-0.818-0.985-2.021-0.586-2.945c1.55-3.579,3.695-6.679,7.627-8.042c0.949-0.328,1.926-0.357,2.889-0.199 c2.162,0.357,2.729,1.51,1.706,3.459c-0.489,0.933-1.073,1.816-1.63,2.711c-0.36,0.58-0.683,1.188-0.107,1.766 c0.587,0.589,1.287,0.297,1.745-0.152c1.834-1.798,4.45-3.098,3.804-6.452c-0.33-1.711,0.93-2.439,2.197-1.589 c1.877,1.262,3.023,0.233,4.321-0.729c0.991-0.734,2.052-1.334,2.915-0.028c0.888,1.341-0.356,1.834-1.258,2.353 c-2.763,1.586-4.198,4.209-5.438,6.97c-0.369,0.825-0.535,1.757,0.146,2.532c0.681,0.774,1.627,0.83,2.462,0.412 c5.519-2.772,11.784-4.471,15.161-10.375c0.516-0.9,1.157-1.761,2.289-1.066c1.188,0.729,0.601,1.71-0.01,2.5 c-0.891,1.156-1.875,2.24-2.813,3.361c-0.424,0.508-0.869,1.108-0.521,1.746c0.392,0.719,1.186,0.395,1.769,0.272 c3.962-0.824,6.698-3.455,9.235-6.364c0.856-0.98,1.415-3.092,3.092-0.667c0.49,0.707,1.127-0.261,1.736-0.336 c2.215-0.271,3.102,0.738,2.28,2.815c-0.596,1.506-1.336,2.953-1.967,4.447c-0.207,0.488-0.582,1.069,0.015,1.545 c0.506,0.401,1.116,0.27,1.621,0.02c1.344-0.662,2.35-1.703,3.135-2.977c1.116-1.813,2.463-3.433,4.196-4.689 c1.272-0.923,2.666-1.564,4.284-1.503c3.161,0.123,4.027,1.725,2.378,4.367c-0.388,0.618-0.759,1.249-1.171,1.852 c-0.753,1.101-0.61,1.804,0.824,1.979c0.684,0.082,1.664-0.166,1.666,0.897c0,0.89-0.791,1.341-1.561,1.688 c-0.634,0.285-1.449,0.479-1.83-0.045c-1.563-2.135-3.037-1.139-4.576-0.049c-0.26,0.185-0.582,0.373-0.885,0.39 c-2.798,0.149-5.557-0.112-8.324,1.146c-1.339,0.609-2.207-1.178-2.203-2.756c0.004-1.889,1.033-3.523,1.477-5.551 c-2.609,1.652-4.417,3.646-5.628,6.201c-0.388,0.816-0.573,2.124-1.879,1.758c-1.121-0.313-1.146-1.438-1.056-2.453 c0.071-0.177,0.142-0.354,0.214-0.527c-0.216-0.008-0.431-0.014-0.646-0.021c-1.608,0.513-3.114,1.36-4.848,1.468 c-0.896,0.057-2.128,0.253-2.479-0.542c-1.075-2.433-2.479-1.146-3.845-0.56c-3.042,1.31-6.078,2.633-9.104,3.979 c-1.31,0.583-2.649,1.033-3.86-0.033c-1.217-1.071-1.327-2.552-0.948-4.035c0.278-1.09,0.702-2.144,1.06-3.213 c0.357-0.279,0.516-0.709,0.18-0.984C124.742,116.953,124.479,117.323,124.357,117.618z M110.41,121.047 c2.599-0.035,5.334-2.73,5.441-5.264c0.043-1.034-0.623-0.867-1.083-0.676c-2.196,0.914-4.229,2.071-5.351,4.326 C108.897,120.482,108.998,121.175,110.41,121.047z M171.215,115.171c-2.984,0.255-4.531,2.253-5.889,4.474 c-0.221,0.357-0.649,0.802-0.235,1.284c0.371,0.433,0.882,0.322,1.343,0.169C169.164,120.184,171.471,118.895,171.215,115.171z"></path><path fill="#673904" d="M278.344,33.865c0,4.551-0.049,9.102,0.029,13.652c0.023,1.367-0.357,1.841-1.755,1.771 c-2.188-0.11-4.388-0.081-6.58-0.008c-1.188,0.039-1.745-0.205-1.737-1.578c0.055-9.182,0.041-18.365,0.012-27.547 c-0.002-1.136,0.35-1.598,1.539-1.555c2.109,0.076,4.23,0.127,6.334-0.013c1.668-0.11,2.254,0.344,2.201,2.115 C278.256,25.086,278.344,29.477,278.344,33.865z"></path><path fill="#6E4210" d="M88.188,126.863c-3.347,0.004-5.786-0.03-8.184-0.551c-3.352-0.729-4.99-2.877-4.767-6.297 c0.163-2.48,0.858-4.853,2.385-6.805c7.051-9.025,15.633-15.738,27.253-17.829c2.434-0.438,4.864-0.104,7.289-0.299 c0.774-0.063,1.472,0.244,1.727,1.055c0.229,0.73-0.255,1.259-0.741,1.685c-1.874,1.645-4.134,2.547-6.508,3.146 c-1.143,0.288-2.059-0.239-1.916-1.493c0.209-1.837-0.752-1.828-2.027-1.563c-0.872,0.181-1.777,0.271-2.611,0.563 c-8.913,3.119-16.48,8.075-21.302,16.43c-3.297,5.712-1.273,9.431,5.277,9.969c5.39,0.441,10.702-0.08,15.852-1.871 c0.939-0.327,1.886-0.58,2.254-1.645c0.353-1.02,1.12-1.157,1.951-0.797c0.97,0.422,1.177,1.234,0.843,2.234 c-0.377,1.133-1.223,1.789-2.3,1.948C97.543,125.499,92.584,127.438,88.188,126.863z"></path><path fill="#6E4210" d="M297.607,13.652c1.004-1.194,1.194-2.52,1.529-3.73c0.362-1.307,1.073-1.559,2.286-1.576 c1.355-0.019,2.137,0.156,2.02,1.817c-0.145,2.018-0.058,4.055-0.024,6.083c0.013,0.85-0.134,1.368-1.176,1.352 c-0.953-0.015-1.301-0.371-1.264-1.297c0.045-1.126,0.011-2.257,0.011-3.792c-1.218,1.319-1.266,2.698-1.729,3.88 c-0.289,0.736-0.581,1.236-1.525,1.215c-0.936-0.021-1.233-0.472-1.465-1.264c-0.381-1.306-0.877-2.578-1.427-4.16 c-0.626,1.47-0.284,2.706-0.34,3.895c-0.04,0.877-0.005,1.556-1.242,1.531c-1.256-0.024-1.189-0.766-1.185-1.609 c0.013-1.866-0.035-3.734,0.021-5.599c0.022-0.781-0.469-2.001,1.019-1.979c1.179,0.018,2.676-0.629,3.188,1.263 C296.654,10.973,297.136,12.23,297.607,13.652z"></path><path fill="#673904" d="M273.143,14.776c-4.904,0.001-4.844,0.001-4.851-5.011c-0.002-1.547,0.36-2.232,2.011-2.02 c1.034,0.132,2.104-0.037,3.149,0.039c1.583,0.114,3.964-0.771,4.565,0.375c0.801,1.531,0.266,3.757,0.323,5.685 c0.031,1.007-0.677,0.924-1.319,0.929C275.729,14.783,274.436,14.776,273.143,14.776z"></path><path fill="#6E4210" d="M115.967,61.568c0-1.263,0.001-2.23-0.002-3.196c-0.001-0.693,0.053-1.317,1.008-1.276 c0.817,0.036,0.836,0.595,0.836,1.181c0.002,3.64-0.004,7.28,0.006,10.92c0.002,0.647-0.291,1.39-0.889,1.004 c-1.423-0.915-2.473,0.178-3.688,0.355c-2.159,0.315-4.075-0.229-5.304-2.125c-1.259-1.942-1.235-4.025,0.138-5.905 c1.322-1.81,3.248-2.321,5.396-1.876C114.234,60.811,114.956,61.189,115.967,61.568z M112.627,61.975 c-2.074-0.047-3.525,1.321-3.607,3.398c-0.09,2.251,1.274,3.757,3.441,3.801c2.102,0.042,3.517-1.288,3.613-3.394 C116.177,63.551,114.793,62.023,112.627,61.975z"></path><path fill="#6E4210" d="M156.389,66.025c-0.813,0-1.629-0.042-2.438,0.014c-0.586,0.04-1.439-0.319-1.616,0.59 c-0.13,0.672,0.354,1.237,0.887,1.627c1.726,1.264,3.459,1.311,5.086-0.16c0.582-0.528,1.313-1.139,1.844-0.462 c0.562,0.714-0.396,1.276-0.897,1.724c-2.19,1.946-6.086,1.649-7.923-0.558c-1.825-2.195-1.401-5.724,0.888-7.372 c2.443-1.76,6.337-1.209,7.843,1.135c0.582,0.904,1.125,1.993,0.707,2.975c-0.422,0.987-1.599,0.362-2.433,0.47 C157.695,66.092,157.037,66.026,156.389,66.025z M155.52,64.719c0.322,0,0.664,0.073,0.961-0.014 c0.771-0.227,2.088,0.626,2.261-0.531c0.186-1.256-1.038-1.896-2.179-2.161c-0.604-0.141-1.308-0.138-1.903,0.025 c-1.111,0.304-2.39,0.917-2.172,2.174c0.184,1.055,1.518,0.303,2.313,0.499C155.025,64.767,155.279,64.719,155.52,64.719z"></path><path fill="#6E4210" d="M216.27,67.575c-1.469,2.682-3.717,3.618-6.508,2.79c-2.549-0.756-3.843-2.637-3.647-5.305 c0.183-2.511,1.928-4.275,4.543-4.591c2.844-0.344,4.979,0.895,5.827,3.281c0.563,1.581,0.432,2.459-1.594,2.304 c-1.774-0.136-3.568-0.037-5.354-0.021c-0.462,0.003-1.05-0.166-1.308,0.357c-0.299,0.606,0.142,1.078,0.508,1.513 c1.287,1.525,3.515,1.733,5.242,0.367C214.639,67.747,215.154,67.154,216.27,67.575z M211.408,64.719 c0.242,0,0.513,0.072,0.72-0.013c0.841-0.343,2.452,0.842,2.493-0.681c0.035-1.356-1.398-2.044-2.82-2.087 c-0.553-0.016-1.144,0.028-1.656,0.214c-0.933,0.336-2,0.958-1.865,1.959c0.162,1.195,1.422,0.387,2.166,0.594 C210.744,64.789,211.086,64.719,211.408,64.719z"></path><path fill="#6E4210" d="M132.317,67.595c-1.468,2.724-3.845,3.658-6.719,2.704c-2.458-0.814-3.683-2.791-3.397-5.479 c0.269-2.535,2.211-4.238,5-4.386c2.849-0.151,4.773,1.242,5.49,3.773c0.413,1.462-0.023,1.901-1.471,1.838 c-1.863-0.082-3.732-0.028-5.599-0.013c-0.464,0.003-1.053-0.165-1.315,0.348c-0.307,0.598,0.121,1.082,0.485,1.52 c1.271,1.525,3.507,1.728,5.247,0.38C130.69,67.777,131.188,67.107,132.317,67.595z M127.41,64.719c0.322,0,0.674,0.085,0.96-0.016 c0.797-0.283,2.225,0.725,2.345-0.62c0.105-1.176-1.127-1.875-2.305-2.09c-0.614-0.113-1.311-0.11-1.905,0.064 c-1.106,0.325-2.373,0.976-2.141,2.211c0.187,0.994,1.525,0.245,2.325,0.442C126.916,64.767,127.17,64.719,127.41,64.719z"></path><path fill="#6E4210" d="M70.401,67.627c-1.735,2.77-4.091,3.629-6.905,2.645c-2.414-0.844-3.614-2.879-3.275-5.557 c0.328-2.601,2.405-4.272,5.334-4.292c2.79-0.019,4.737,1.584,5.21,4.13c0.202,1.088-0.062,1.503-1.175,1.482 c-2.028-0.038-4.059-0.021-6.087,0.001c-0.448,0.005-1.022-0.159-1.223,0.476c-0.166,0.529,0.152,0.927,0.452,1.313 c1.2,1.546,3.537,1.827,5.238,0.518C68.686,67.792,69.229,67.035,70.401,67.627z M65.549,64.719c0.326,0,0.67,0.069,0.973-0.013 c0.756-0.205,2.059,0.588,2.191-0.592c0.128-1.121-1.013-1.783-2.074-2.084c-0.784-0.223-1.626-0.218-2.399,0.096 c-0.924,0.376-2.029,0.95-1.87,1.983c0.182,1.189,1.448,0.394,2.209,0.598C64.881,64.787,65.225,64.719,65.549,64.719z"></path><path fill="#6E4210" d="M250.314,60.423c1.529,0.004,2.896,0.462,3.912,1.636c0.818,0.945,1.517,2.158,1.143,3.335 c-0.422,1.331-1.817,0.521-2.764,0.598c-1.533,0.125-3.086,0.06-4.629,0.029c-1.539-0.03-1.394,0.688-0.761,1.629 c1.029,1.532,3.331,1.991,5.011,0.974c0.406-0.247,0.709-0.659,1.092-0.952c0.41-0.314,0.979-0.473,1.348-0.131 c0.646,0.6-0.104,1.014-0.412,1.381c-1.549,1.836-4.624,2.268-6.941,1.027c-1.973-1.057-2.967-3.343-2.438-5.607 C245.453,61.852,247.475,60.396,250.314,60.423z M250.012,64.719c0.321,0,0.672,0.084,0.959-0.016 c0.799-0.277,2.229,0.723,2.346-0.649c0.104-1.195-1.137-1.842-2.307-2.07c-0.539-0.105-1.138-0.105-1.674,0.013 c-1.154,0.253-2.423,0.902-2.352,2.068c0.088,1.402,1.535,0.317,2.309,0.641C249.499,64.792,249.771,64.719,250.012,64.719z"></path><path fill="#6E4210" d="M262.857,84.759c1.757-0.922,3.531-1.528,5.023,0.04c1.422,1.493,1.43,3.385,0.77,5.264 c-0.488,1.392-1.549,2.065-2.99,2.054c-1.404-0.013-2.688-0.925-4.247-0.194c-0.911,0.426-1.034-0.656-1.031-1.424 c0.011-2.357-0.002-4.716,0.007-7.074c0.004-0.87-0.226-1.857,1.219-1.857c1.516,0.002,1.069,1.082,1.148,1.893 C262.793,83.848,262.818,84.239,262.857,84.759z M262.792,88.186c-0.269,1.397,0.135,2.518,1.914,2.478 c1.667-0.038,1.867-1.333,1.892-2.593c0.024-1.369-0.193-2.726-1.998-2.731C262.746,85.333,262.617,86.633,262.792,88.186z"></path><path fill="#6E4210" d="M15.6,60.417c3.828,0.035,4.6,0.963,4.814,4.336c0.1,1.554-1.194,3.649,1.24,4.647 c0.084,0.035,0.113,0.509,0.004,0.65c-0.339,0.439-1.02,0.506-1.32,0.283c-1.625-1.199-3.053-0.102-4.564,0.223 c-1.127,0.242-2.262,0.135-3.341-0.342c-1.09-0.48-1.604-1.334-1.603-2.496c0.002-1.189,0.609-1.953,1.71-2.403 c1.464-0.599,3.047-0.434,4.548-0.775c0.713-0.162,1.578-0.213,1.547-1.194c-0.03-0.963-0.739-1.42-1.643-1.451 c-1.508-0.051-3.162-0.457-4.061,1.35c-0.282,0.567-0.866,0.631-1.236,0.383c-0.613-0.412-0.271-1.046,0.034-1.505 C12.764,60.569,14.385,60.426,15.6,60.417z M14.898,69.229c0.74,0.028,1.438-0.104,2.109-0.44c1.113-0.556,1.987-1.463,1.642-2.657 c-0.352-1.213-1.459-0.133-2.221-0.223c-0.616-0.072-1.271,0.17-1.907,0.271c-1.006,0.158-2.086,0.405-1.885,1.696 C12.816,69.025,13.857,69.248,14.898,69.229z"></path><path fill="#6E4210" d="M141.968,70.676c-1.853-0.059-3.397-0.203-4.499-1.505c-0.395-0.467-1.002-1.116-0.359-1.676 c0.558-0.486,1.177-0.145,1.592,0.508c0.967,1.519,2.508,1.267,3.954,1.171c0.844-0.056,1.688-0.391,1.78-1.348 c0.103-1.089-0.873-1.252-1.65-1.408c-1.113-0.223-2.249-0.323-3.371-0.502c-1.372-0.219-2.281-1.041-2.324-2.412 c-0.041-1.335,0.775-2.221,2.057-2.712c2.187-0.838,5.278-0.33,6.311,1.171c0.271,0.393,0.936,0.933,0.277,1.434 c-0.44,0.334-1.133,0.335-1.502-0.263c-0.961-1.559-2.454-1.37-3.91-1.202c-0.763,0.088-1.43,0.475-1.426,1.379 c0.005,0.847,0.676,1.007,1.346,1.109c1.044,0.157,2.096,0.269,3.129,0.478c1.471,0.297,3.012,0.676,2.998,2.588 c-0.014,1.723-1.181,2.579-2.764,2.918C142.975,70.539,142.332,70.617,141.968,70.676z"></path><path fill="#6E4210" d="M197.626,70.68c-1.831-0.082-3.364-0.281-4.407-1.637c-0.32-0.416-0.824-1.046-0.346-1.491 c0.471-0.437,1.146-0.423,1.613,0.331c1.133,1.829,2.916,1.43,4.588,1.165c0.619-0.098,1.212-0.487,1.232-1.299 c0.021-0.871-0.643-1.101-1.261-1.227c-1.269-0.26-2.565-0.373-3.838-0.62c-1.211-0.235-2.104-0.896-2.224-2.224 c-0.123-1.404,0.631-2.271,1.861-2.82c2.041-0.907,5.228-0.449,6.364,0.959c0.349,0.432,0.896,1.011,0.444,1.493 c-0.502,0.537-1.208,0.334-1.648-0.305c-1.025-1.489-2.518-1.228-3.965-1.043c-0.699,0.089-1.219,0.518-1.234,1.28 c-0.016,0.817,0.563,1.083,1.271,1.181c1.044,0.144,2.098,0.25,3.125,0.473c1.434,0.312,3.02,0.588,3.029,2.54 c0.01,1.9-1.332,2.646-2.941,3.022C198.667,70.604,198.014,70.631,197.626,70.68z"></path><path fill="#6E4210" d="M273.738,70.688c-1.907-0.099-3.45-0.272-4.495-1.637c-0.32-0.418-0.847-1.035-0.37-1.496 c0.493-0.477,1.188-0.382,1.633,0.327c1.155,1.83,2.922,1.429,4.594,1.16c0.629-0.101,1.228-0.501,1.244-1.299 c0.02-0.854-0.656-1.096-1.279-1.223c-1.27-0.26-2.565-0.386-3.842-0.621c-1.229-0.226-2.099-0.894-2.211-2.227 c-0.117-1.406,0.612-2.276,1.861-2.818c2.07-0.899,5.241-0.451,6.368,0.976c0.334,0.423,0.919,1.011,0.46,1.488 c-0.477,0.496-1.233,0.374-1.671-0.286c-1.011-1.523-2.507-1.242-3.951-1.076c-0.702,0.081-1.236,0.541-1.274,1.266 c-0.039,0.794,0.555,1.09,1.267,1.194c1.204,0.176,2.422,0.299,3.604,0.569c1.305,0.297,2.607,0.793,2.602,2.431 c-0.006,1.584-0.979,2.527-2.481,2.895C275.014,70.502,274.21,70.604,273.738,70.688z"></path><path fill="#6E4210" d="M35.281,66.792c-0.588,0.956,1.104,3.31-1.045,3.29c-1.731-0.016-0.43-2.237-0.774-3.421 c-0.174-0.598-0.065-1.29-0.024-1.935c0.115-1.807-0.703-2.753-2.52-2.8c-1.816-0.046-3.262,0.5-3.438,2.567 c-0.123,1.448-0.042,2.914-0.064,4.371c-0.011,0.633,0.1,1.332-0.884,1.396c-1.05,0.069-0.917-0.65-0.919-1.281 c-0.007-2.35,0.016-4.698-0.014-7.047c-0.009-0.766,0.373-1.586,1.005-1.093c1.28,1,2.129,0.054,3.161-0.246 c3.215-0.936,5.438,0.71,5.513,4.062C35.293,65.3,35.281,65.949,35.281,66.792z"></path><path fill="#6E4210" d="M269.036,84.076c4.251-0.512,2.872,3.734,4.759,4.951c0.504-1.26,1.104-2.59,1.569-3.967 c0.386-1.145,1.271-1.35,2.108-0.979c0.916,0.403,0.102,1.142-0.103,1.647c-0.903,2.256-1.892,4.477-2.837,6.713 c-0.504,1.19-1.227,2.146-2.641,2.168c-0.672,0.011-1.662,0.416-1.936-0.463c-0.37-1.192,0.803-0.813,1.384-1.067 c1.158-0.506,1.134-1.349,0.644-2.39C270.991,88.579,270.079,86.43,269.036,84.076z"></path><path fill="#6E4210" d="M230.764,67.029c-0.908,2.686-2.332,3.718-4.988,3.619c-2.52-0.095-4.252-1.409-4.84-3.672 c-0.58-2.237,0.301-4.683,2.086-5.789c1.918-1.187,5.07-0.998,6.629,0.432c0.589,0.541,1.466,1.41,0.943,1.984 c-0.762,0.838-1.445-0.022-2.104-0.733c-1.303-1.405-3.813-1.285-5.001,0.083c-1.169,1.344-1.037,4.207,0.245,5.38 c1.418,1.296,3.716,1.146,4.883-0.513C229.239,66.936,229.764,66.539,230.764,67.029z"></path><path fill="#6E4210" d="M45.332,60.431c1.258,0.055,2.781,0.477,3.776,1.98c0.251,0.38,0.685,0.887,0.262,1.278 c-0.437,0.404-1.083,0.292-1.556-0.103c-0.237-0.198-0.324-0.569-0.552-0.784c-1.397-1.314-3.827-1.205-5.01,0.207 c-1.185,1.413-1.032,4.181,0.294,5.355c1.434,1.27,3.719,1.096,4.879-0.573c0.56-0.805,1.184-1.374,1.882-0.783 c0.649,0.549-0.163,1.316-0.541,1.854c-1.245,1.77-4.112,2.323-6.409,1.315c-2.217-0.972-3.262-3.468-2.586-6.172 C40.336,61.746,42.283,60.387,45.332,60.431z"></path><path fill="#673904" d="M75.33,65.443c-0.001-0.731-0.002-1.462-0.001-2.193c0.003-1.801-0.003-1.737,1.903-1.586 c0.47,0.037,0.968-0.528,1.479-0.759c3.375-1.527,6.08,0.133,6.119,3.752c0.016,1.38,0.027,2.763-0.01,4.143 c-0.015,0.582,0.263,1.392-0.789,1.438c-1.063,0.046-0.854-0.741-0.863-1.345c-0.022-1.381-0.034-2.763-0.003-4.143 c0.04-1.764-0.708-2.764-2.546-2.842c-1.857-0.079-3.276,0.573-3.542,2.534c-0.206,1.517-0.075,3.08-0.099,4.623 c-0.008,0.565,0.056,1.166-0.807,1.185c-0.87,0.019-0.838-0.565-0.839-1.149C75.331,67.881,75.332,66.662,75.33,65.443z"></path><path fill="#6E4210" d="M286.713,8.386c0.889,0.002,1.777,0.001,2.666,0.003c0.635,0,1.116,0.171,1.105,0.941 c-0.008,0.576,0.029,1.315-0.76,1.235c-2.048-0.207-1.619,1.204-1.638,2.338c-0.016,1.05-0.024,2.101,0.003,3.151 c0.024,0.883-0.009,1.563-1.23,1.552c-1.106-0.01-1.648-0.283-1.565-1.497c0.083-1.207,0.013-2.423,0.019-3.635 c0.006-0.963,0.213-2.028-1.366-1.87c-0.894,0.089-1.046-0.544-1.017-1.27c0.036-0.921,0.674-0.958,1.359-0.952 C285.098,8.39,285.904,8.383,286.713,8.386z"></path><path fill="#6E4210" d="M178.967,70.645c-1.875,0.072-2.873-0.717-2.895-2.547c-0.019-1.456-0.018-2.913-0.008-4.369 c0.006-0.846,0.033-1.626-1.183-1.657c-0.692-0.019-1.146-0.91-0.514-1.029c1.646-0.31,1.791-1.251,1.731-2.548 c-0.022-0.482,0.355-0.689,0.799-0.715c0.56-0.033,1.017,0.188,0.935,0.804c-0.219,1.622,0.31,2.438,2.067,2.212 c0.429-0.055,0.811,0.283,0.686,0.757c-0.061,0.223-0.48,0.54-0.689,0.506c-2.449-0.397-2.054,1.294-2.043,2.717 c0.008,0.971,0.021,1.942,0.002,2.912c-0.017,0.88,0.414,1.33,1.26,1.481c0.555,0.101,1.529-0.347,1.473,0.693 C180.531,70.936,179.523,70.553,178.967,70.645z"></path><path fill="#6E4210" d="M93.418,70.652c-2.086,0.027-3.041-0.838-2.957-2.808c0.059-1.375-0.006-2.755,0.014-4.132 c0.013-0.855,0.052-1.675-1.182-1.62c-0.45,0.021-0.781-0.171-0.773-0.697c0.006-0.388,0.235-0.644,0.589-0.617 c1.562,0.118,1.386-0.953,1.362-1.929c-0.014-0.632,0.109-1.128,0.915-1.088c0.782,0.04,0.933,0.551,0.868,1.168 c-0.137,1.311,0.297,2.016,1.738,1.84c0.522-0.064,1.003,0.084,0.923,0.769c-0.062,0.528-0.507,0.596-0.908,0.545 c-1.684-0.213-1.831,0.788-1.755,2.082c0.066,1.13,0.018,2.268,0.019,3.401c0.001,0.94,0.358,1.541,1.395,1.608 c0.493,0.032,1.286-0.269,1.25,0.659C94.867,71.049,93.818,70.422,93.418,70.652z"></path><path fill="#6E4210" d="M263.656,70.657c-1.824,0.036-3.018-0.571-2.932-2.647c0.049-1.214,0.01-2.433,0.008-3.649 c0-0.406-0.111-0.848,0.012-1.21c0.561-1.652-3.094-0.6-1.59-2.134c0.728-0.742,1.777-0.938,1.596-2.294 c-0.068-0.516,0.107-0.966,0.78-0.956c0.571,0.009,0.972,0.251,0.919,0.854c-0.127,1.443,0.197,2.404,1.945,2.162 c0.424-0.059,0.799,0.13,0.787,0.666c-0.013,0.539-0.404,0.688-0.822,0.633c-2.051-0.271-1.955,1.069-1.896,2.439 c0.042,0.971,0.012,1.946,0.01,2.919c0,1.035,0.377,1.72,1.539,1.739c0.527,0.009,1.277-0.176,1.166,0.742 C265.063,70.872,264.232,70.57,263.656,70.657z"></path><path fill="#6E4210" d="M165.271,65.281c0-0.728-0.002-1.453,0-2.179c0.009-2.243,0.019-2.262,1.965-1.342 c0.559,0.265,0.646-0.254,0.896-0.442c0.734-0.553,1.509-0.916,2.446-0.889c0.555,0.016,0.947,0.194,0.932,0.822 c-0.012,0.461,0.086,1.096-0.627,1.053c-3.779-0.227-3.742,2.285-3.824,4.973c-0.027,0.95,1.066,2.877-0.846,2.862 c-1.852-0.015-0.609-1.916-0.91-2.93C165.127,66.615,165.271,65.927,165.271,65.281z"></path><path fill="#6E4210" d="M235.227,65.29c0-0.893-0.013-1.787,0.004-2.679c0.033-1.9,0.063-1.94,1.811-0.949 c0.682,0.386,0.813-0.218,1.126-0.444c0.683-0.495,1.397-0.795,2.248-0.788c0.567,0.005,0.95,0.196,0.938,0.82 c-0.011,0.461,0.043,0.865-0.625,1.091c-3.746,1.271-3.684,1.301-3.785,5.276c-0.022,0.872,0.807,2.478-0.771,2.549 c-1.74,0.078-0.725-1.581-0.908-2.448C235.098,66.941,235.227,66.102,235.227,65.29z"></path><path fill="#6E4210" d="M53.996,65.354c-0.002-1.132,0.006-2.265-0.006-3.397c-0.006-0.601,0.008-1.16,0.824-1.178 c0.695-0.015,1.015,0.288,1.008,1.014c-0.021,2.507-0.012,5.015-0.011,7.523c0,0.562-0.211,0.902-0.827,0.938 c-0.74,0.041-1.001-0.32-0.992-1.017C54.01,67.942,53.998,66.648,53.996,65.354z"></path><path fill="#6E4210" d="M149.578,104.975c0.607,0.02,0.956,0.413,0.967,1.205c0.019,1.402-1.934,4.289-3.033,4.334 c-0.927,0.039-1.215-0.57-1.209-1.412C146.313,107.275,148.021,104.986,149.578,104.975z"></path><path fill="#6E4210" d="M54.838,57.098c0.709-0.042,0.979,0.32,0.981,1.001c0.003,0.538-0.114,0.937-0.735,0.968 c-0.593,0.029-1.113-0.022-1.092-0.839C54.008,57.628,54.052,57.101,54.838,57.098z"></path></svg>